<?xml version="1.0" standalone="no"?>
<!DOCTYPE svg PUBLIC "-//W3C//DTD SVG 20010904//EN"
 "http://www.w3.org/TR/2001/REC-SVG-20010904/DTD/svg10.dtd">
<svg version="1.0" xmlns="http://www.w3.org/2000/svg"
 width="1199.000000pt" height="899.000000pt" viewBox="0 0 1199.000000 899.000000"
 preserveAspectRatio="xMidYMid meet">

<g transform="translate(0.000000,899.000000) scale(0.100000,-0.100000)"
fill="#000000" stroke="none">
<path d="M6698 7117 c-46 -24 -332 -169 -635 -322 -304 -153 -553 -281 -553
-284 0 -3 303 -6 673 -6 718 0 742 -1 895 -51 386 -126 671 -437 765 -836 20
-87 21 -117 22 -488 0 -411 -1 -427 -47 -585 -27 -93 -107 -255 -163 -330
-203 -270 -475 -427 -807 -466 l-103 -12 -332 -166 -332 -166 372 -3 c383 -3
472 3 624 38 473 111 876 469 1042 926 l29 79 93 6 c52 3 110 13 130 21 50 22
105 73 137 127 l27 46 0 411 0 411 -30 48 c-40 64 -103 112 -176 132 l-59 16
0 313 0 312 29 7 c40 8 107 69 133 119 16 30 22 59 22 106 0 114 -73 207 -180
231 -152 34 -289 -76 -288 -231 1 -103 58 -189 148 -221 l36 -13 -1 -271 0
-270 -20 60 c-81 245 -211 457 -386 626 -274 267 -645 419 -1018 419 -47 0
-85 3 -85 6 0 3 32 71 70 151 39 80 70 148 70 150 0 9 -27 -1 -102 -40z m1608
-513 c39 -40 45 -93 19 -144 -41 -79 -167 -78 -211 2 -20 36 -17 96 7 130 26
36 50 47 108 47 38 1 48 -4 77 -35z"/>
<path d="M5080 6839 c-564 -69 -1043 -458 -1221 -992 -17 -51 -33 -94 -35 -96
-2 -2 -4 118 -4 267 l0 270 37 13 c57 18 119 88 138 154 28 95 1 183 -76 248
-138 119 -355 33 -385 -151 -10 -64 19 -146 70 -197 24 -23 60 -49 80 -56 l36
-13 -2 -315 -3 -315 -44 -8 c-91 -16 -177 -90 -206 -179 -14 -40 -15 -105 -13
-435 l3 -389 27 -45 c59 -100 126 -138 263 -148 l97 -7 29 -79 c77 -211 183
-374 358 -546 271 -267 599 -404 1004 -417 92 -3 167 -8 167 -11 0 -2 -31 -71
-70 -152 -38 -81 -70 -149 -70 -152 0 -5 594 292 1025 513 l270 139 -685 0
c-755 0 -801 3 -973 60 -378 127 -659 439 -754 840 -21 89 -31 743 -13 875 70
517 474 921 985 984 50 6 114 11 144 11 50 0 79 12 385 166 182 92 333 168
335 171 9 7 -834 0 -899 -8z m-1224 -235 c64 -68 38 -168 -52 -199 -33 -11
-44 -11 -74 1 -47 20 -68 41 -79 80 -13 47 3 97 40 128 24 20 41 26 81 26 45
0 54 -4 84 -36z"/>
<path d="M5212 5560 c-103 -22 -207 -88 -268 -171 -46 -63 -44 -90 7 -127 47
-35 61 -33 89 14 44 70 132 122 223 131 114 10 218 -37 287 -130 40 -54 59
-58 107 -21 47 36 44 66 -16 140 -104 129 -279 195 -429 164z"/>
<path d="M6603 5560 c-101 -21 -200 -84 -263 -165 -46 -60 -50 -93 -16 -122
50 -44 64 -46 88 -16 92 113 157 148 274 148 70 0 88 -4 139 -30 39 -20 74
-48 103 -85 25 -30 50 -58 57 -62 7 -5 30 5 54 22 56 41 55 69 -6 145 -56 68
-120 115 -198 144 -64 24 -172 34 -232 21z"/>
<path d="M6253 4599 c-89 -119 -235 -168 -368 -122 -37 13 -69 36 -121 89 -79
78 -87 80 -138 26 -38 -41 -31 -65 43 -145 141 -150 325 -187 506 -101 72 34
128 80 175 144 52 72 51 91 -4 130 -25 16 -47 30 -50 30 -3 0 -23 -23 -43 -51z"/>
<path d="M4120 2395 l0 -545 124 0 124 0 4 208 c3 169 7 214 22 247 25 59 61
84 119 85 59 0 82 -11 104 -53 15 -27 18 -64 21 -257 l2 -225 126 -3 126 -3
-4 278 c-4 314 -9 336 -79 397 -49 42 -97 56 -190 56 -91 0 -157 -28 -211 -88
l-38 -42 0 245 0 245 -125 0 -125 0 0 -545z"/>
<path d="M3655 2903 c-196 -18 -364 -152 -433 -346 -22 -62 -26 -89 -26 -192
0 -105 3 -129 26 -192 51 -141 142 -243 271 -304 116 -54 277 -57 423 -9 l64
22 0 155 0 155 -41 -37 c-119 -107 -294 -106 -390 3 -72 82 -93 204 -55 318
61 184 273 238 431 109 l55 -45 0 154 0 154 -77 25 c-79 26 -174 37 -248 30z"/>
<path d="M6550 2366 l0 -516 233 0 c127 0 261 5 297 10 120 19 189 58 237 133
23 36 28 56 31 134 4 81 2 97 -21 146 -28 61 -71 99 -134 118 -24 7 -43 15
-43 18 0 3 20 14 45 24 99 41 138 146 100 274 -11 36 -28 62 -59 91 -73 68
-111 75 -418 80 l-268 4 0 -516z m436 293 c37 -11 58 -47 57 -96 -2 -64 -55
-92 -174 -93 l-57 0 -6 36 c-4 19 -4 67 0 106 l7 70 71 -6 c39 -4 85 -11 102
-17z m-17 -379 c73 -10 107 -36 117 -87 4 -19 1 -46 -6 -64 -20 -48 -61 -63
-174 -64 l-99 0 -3 30 c-1 17 0 67 3 113 l6 82 46 0 c25 0 75 -5 110 -10z"/>
<path d="M6060 2670 l0 -110 -55 0 -55 0 0 -90 0 -90 55 0 55 0 0 -265 0 -265
125 0 126 0 -2 263 -1 262 51 3 51 3 0 89 0 89 -51 3 -51 3 -2 102 -1 103
-122 5 -123 5 0 -110z"/>
<path d="M8446 2772 c-3 -3 -6 -52 -6 -109 l0 -103 -50 0 -50 0 0 -90 0 -90
50 0 50 0 0 -265 0 -265 125 0 125 0 0 265 0 265 55 0 55 0 0 90 0 90 -55 0
-54 0 -3 107 -3 106 -117 3 c-64 1 -119 -1 -122 -4z"/>
<path d="M5214 2551 c-109 -52 -167 -148 -180 -299 -11 -135 21 -258 91 -340
14 -17 52 -44 83 -59 49 -24 69 -28 137 -27 96 1 138 17 206 81 l49 46 0 -52
0 -51 115 0 115 0 0 355 0 355 -115 0 -115 0 0 -52 0 -52 -47 46 c-63 62 -104
78 -200 78 -65 0 -88 -5 -139 -29z m310 -186 c53 -25 79 -77 80 -155 1 -73
-19 -118 -67 -154 -23 -17 -43 -21 -97 -21 -63 0 -72 3 -101 30 -41 39 -59 83
-59 142 0 51 26 119 53 142 50 41 125 47 191 16z"/>
<path d="M7733 2566 c-100 -33 -187 -108 -235 -204 -20 -41 -23 -61 -23 -157
1 -129 17 -172 96 -259 57 -63 132 -101 227 -118 174 -30 357 64 430 220 24
50 27 69 27 157 0 89 -3 106 -28 156 -35 72 -114 151 -186 186 -49 24 -70 28
-161 30 -68 2 -120 -2 -147 -11z m218 -223 c39 -34 59 -79 59 -137 0 -104 -57
-170 -146 -170 -94 0 -144 56 -144 162 0 116 48 172 147 172 41 0 58 -5 84
-27z"/>
</g>
</svg>
